<?xml version="1.0" standalone="no"?><!DOCTYPE svg PUBLIC "-//W3C//DTD SVG 1.1//EN" "http://www.w3.org/Graphics/SVG/1.1/DTD/svg11.dtd"><svg t="1584332896373" class="icon" viewBox="0 0 1024 1024" version="1.1" xmlns="http://www.w3.org/2000/svg" p-id="3356" xmlns:xlink="http://www.w3.org/1999/xlink" width="200" height="200"><defs><style type="text/css"></style></defs><path d="M909.312 731.136c0 4.096-4.096 10.24-8.192 12.288l-368.64 212.992v-434.176l376.832-206.848v415.744z m-786.432 14.336c-4.096-2.048-8.192-8.192-8.192-12.288v-413.696l376.832 206.848v434.176l-368.64-215.04z m380.928-686.08c4.096-2.048 12.288-2.048 14.336 0l376.832 217.088-385.024 210.944-385.024-210.944 378.88-217.088z m446.464 235.52v-2.048c0-18.432-12.288-38.912-28.672-49.152l-380.928-219.136c-16.384-10.24-40.96-10.24-55.296 0l-380.928 219.136c-16.384 10.24-28.672 30.72-28.672 49.152V731.136c0 18.432 12.288 38.912 28.672 49.152l380.928 219.136c16.384 10.24 40.96 10.24 55.296 0l380.928-219.136c16.384-10.24 28.672-30.72 28.672-49.152v-436.224z" p-id="3357"></path></svg>