<?xml version="1.0" standalone="no"?><!DOCTYPE svg PUBLIC "-//W3C//DTD SVG 1.1//EN" "http://www.w3.org/Graphics/SVG/1.1/DTD/svg11.dtd"><svg t="1584332442148" class="icon" viewBox="0 0 1024 1024" version="1.1" xmlns="http://www.w3.org/2000/svg" p-id="2791" xmlns:xlink="http://www.w3.org/1999/xlink" width="200" height="200"><defs><style type="text/css"></style></defs><path d="M836.812861 1008.246154H180.749434a62.526893 62.526893 0 0 1-62.526894-62.511262V354.105428a62.526893 62.526893 0 0 1 18.304748-44.206513L420.289962 26.136241A62.448735 62.448735 0 0 1 464.496475 7.815862h372.316386a62.526893 62.526893 0 0 1 62.526893 62.526893v875.392137a62.526893 62.526893 0 0 1-62.526893 62.511262zM426.542651 108.280947L220.71975 314.11948h205.822901V108.280947zM836.812861 70.342755h-368.596036v264.629444c0 11.504948-9.300875 20.837087-20.821455 20.837087H180.749434v589.925606h656.063427V70.342755zM275.446413 466.669468h450.646952a20.821455 20.821455 0 1 1 0 41.674174H275.446413a20.837087 20.837087 0 0 1 0-41.674174z m0 111.329133h225.31566a20.837087 20.837087 0 1 1 0 41.689806H275.446413a20.852719 20.852719 0 0 1 0-41.689806z m0 111.360397h450.646952a20.821455 20.821455 0 1 1 0 41.674175H275.446413a20.837087 20.837087 0 0 1 0-41.674175z m0 111.344765h122.740292a20.837087 20.837087 0 1 1 0 41.674175h-122.740292a20.837087 20.837087 0 0 1 0-41.674175z m233.350366 0h225.31566a20.821455 20.821455 0 0 1 0 41.674175H508.796779a20.837087 20.837087 0 0 1 0-41.674175z m225.31566-181.015356h-122.755923a20.837087 20.837087 0 1 1 0-41.689806h122.755923a20.837087 20.837087 0 0 1 0 41.689806z" p-id="2792"></path></svg>