<svg width="2476" height="2475" xmlns="http://www.w3.org/2000/svg" xmlns:xlink="http://www.w3.org/1999/xlink" overflow="hidden"><defs><clipPath id="clip0"><rect x="1017" y="0" width="2476" height="2475"/></clipPath></defs><g clip-path="url(#clip0)" transform="translate(-1017 0)"><path d="M1511 330.34C1511 147.898 1658.9 0 1841.34 0L3162.66 0C3345.1-6.30838e-14 3493 147.898 3493 330.34L3493 1651.66C3493 1834.1 3345.1 1982 3162.66 1982L1841.34 1982C1658.9 1982 1511 1834.1 1511 1651.66Z" fill="#6EDFF6" fill-rule="evenodd"/><path d="M1017 824.173C1017 641.824 1164.82 494 1347.17 494L2668.83 494C2851.18 494 2999 641.824 2999 824.173L2999 2144.83C2999 2327.18 2851.18 2475 2668.83 2475L1347.17 2475C1164.82 2475 1017 2327.18 1017 2144.83Z" fill="#6EDFF6" fill-rule="evenodd"/><path d="M1265 576.34C1265 393.898 1412.9 246 1595.34 246L2916.66 246C3099.1 246 3247 393.898 3247 576.34L3247 1897.66C3247 2080.1 3099.1 2228 2916.66 2228L1595.34 2228C1412.9 2228 1265 2080.1 1265 1897.66Z" fill="#0DCAF0" fill-rule="evenodd"/><text fill="#FFFFFF" font-family="JingDongLangZhengTi,JingDongLangZhengTi_MSFontService,sans-serif" font-weight="700" font-size="633" transform="matrix(1 0 0 1 1505.88 1499)">ViCo</text></g></svg>