<?xml version="1.0" standalone="no"?><!DOCTYPE svg PUBLIC "-//W3C//DTD SVG 1.1//EN" "http://www.w3.org/Graphics/SVG/1.1/DTD/svg11.dtd"><svg t="1584334789996" class="icon" viewBox="0 0 1024 1024" version="1.1" xmlns="http://www.w3.org/2000/svg" p-id="7598" xmlns:xlink="http://www.w3.org/1999/xlink" width="200" height="200"><defs><style type="text/css"></style></defs><path d="M513.536 916.48c-172.032 0-311.808-139.776-311.808-311.808s139.776-311.808 311.808-311.808c172.032 0 311.808 139.776 311.808 311.808S685.568 916.48 513.536 916.48z m0-571.392c-142.848 0-259.584 116.224-259.584 259.584s116.224 259.584 259.584 259.584c142.848 0 259.584-116.224 259.584-259.584S656.384 345.088 513.536 345.088z" fill="#2C2C2C" p-id="7599"></path><path d="M760.832 358.4c-7.168 0-14.336-3.072-19.456-8.704-9.728-10.752-8.704-27.136 2.048-36.864l32.256-29.184v-96.256H251.392v95.744l29.184 26.112c10.752 9.728 11.776 26.112 2.048 36.864-9.728 10.752-26.112 11.776-36.864 2.048l-37.888-33.792c-5.632-5.12-8.704-12.288-8.704-19.456V161.28c0-14.336 11.776-26.112 26.112-26.112h576.512c14.336 0 26.112 11.776 26.112 26.112v133.632c0 7.168-3.072 14.336-8.704 19.456l-40.96 36.864c-4.608 4.608-10.752 7.168-17.408 7.168z" fill="#2C2C2C" p-id="7600"></path><path d="M417.28 272.896c-14.336 0-26.112-11.776-26.112-26.112V161.28c0-14.336 11.776-26.112 26.112-26.112s26.112 11.776 26.112 26.112v85.504c0 14.336-11.776 26.112-26.112 26.112z m190.976 0c-14.336 0-26.112-11.776-26.112-26.112V161.28c0-14.336 11.776-26.112 26.112-26.112s26.112 11.776 26.112 26.112v85.504c0 14.336-11.776 26.112-26.112 26.112zM614.4 778.24c-3.584 0-7.68-1.024-11.264-3.072l-93.184-50.688-94.72 48.128c-7.68 4.096-17.408 3.072-24.576-2.048s-10.752-14.336-8.704-23.04l19.456-104.448-74.752-75.264c-6.144-6.144-8.192-15.36-5.632-24.064s10.24-14.336 18.944-15.36L445.44 514.56l48.64-94.72c4.096-7.68 12.288-12.8 20.992-12.8s16.896 5.12 20.48 13.312l45.568 95.744 104.96 16.896c8.704 1.536 15.872 7.68 18.432 15.872s0 17.408-6.144 23.552l-77.312 73.216 16.384 104.96c1.536 8.704-2.56 17.408-9.728 22.528-4.096 3.584-8.704 5.12-13.312 5.12zM510.464 675.328c3.584 0 7.68 1.024 11.264 3.072l62.464 34.304-11.264-70.656c-1.024-7.68 1.536-15.36 7.168-20.48l51.712-49.152-70.656-11.264c-7.68-1.024-13.824-6.144-17.408-12.8l-30.72-64.512-31.744 62.976c-3.584 6.656-10.24 11.264-17.92 12.288l-70.656 9.216 50.176 50.688c5.632 5.632 7.68 13.312 6.144 20.48l-13.312 70.144 63.488-32.256c4.096-1.536 7.68-2.048 11.264-2.048z" fill="#2C2C2C" p-id="7601"></path></svg>